HIERARCHY
ROOT Hips
{
	OFFSET 0.000000 0.000000 0.000000
	CHANNELS 6 Xposition Yposition Zposition Xrotation Yrotation Zrotation
	JOINT LeftUpLeg_virtual
	{
		OFFSET 0.000000 0.000000 0.000000
		CHANNELS 3 Xrotation Yrotation Zrotation
		JOINT LeftUpLeg
		{
			OFFSET 13.026900 -6.336304 -1.092800
			CHANNELS 3 Xrotation Yrotation Zrotation
			JOINT LeftLeg
			{
				OFFSET 0.524474 -46.096886 9.782700
				CHANNELS 3 Xrotation Yrotation Zrotation
				JOINT LeftFoot
				{
					OFFSET -0.524474 -53.427422 -12.948200
					CHANNELS 3 Xrotation Yrotation Zrotation
					JOINT LeftToeBase
					{
						OFFSET 0.192200 -14.009700 16.364100
						CHANNELS 3 Xrotation Yrotation Zrotation
						JOINT LeftToe_End
						{
							OFFSET -1.784700 -0.561700 9.474800
							CHANNELS 3 Xrotation Yrotation Zrotation
							End Site
							{
								OFFSET 0 0 0
							}
						}
					}
				}
			}
		}
	}
	JOINT RightUpLeg_virtual
	{
		OFFSET 0.000000 0.000000 0.000000
		CHANNELS 3 Xrotation Yrotation Zrotation
		JOINT RightUpLeg
		{
			OFFSET -12.883000 -6.336304 -1.092800
			CHANNELS 3 Xrotation Yrotation Zrotation
			JOINT RightLeg
			{
				OFFSET -0.524587 -46.096825 9.782800
				CHANNELS 3 Xrotation Yrotation Zrotation
				JOINT RightFoot
				{
					OFFSET 0.524587 -53.427383 -12.948300
					CHANNELS 3 Xrotation Yrotation Zrotation
					JOINT RightToeBase
					{
						OFFSET -0.192200 -14.009700 16.364100
						CHANNELS 3 Xrotation Yrotation Zrotation
						JOINT RightToe_End
						{
							OFFSET 1.784700 -0.561700 9.474800
							CHANNELS 3 Xrotation Yrotation Zrotation
							End Site
							{
								OFFSET 0 0 0
							}
						}
					}
				}
			}
		}
	}
	JOINT Spine_virtual
	{
		OFFSET 0.000000 0.000000 0.000000
		CHANNELS 3 Xrotation Yrotation Zrotation
		JOINT Spine
		{
			OFFSET 0.072000 7.257294 -0.789700
			CHANNELS 3 Xrotation Yrotation Zrotation
			JOINT Spine1
			{
				OFFSET 0.000000 12.508769 -0.658067
				CHANNELS 3 Xrotation Yrotation Zrotation
				JOINT Spine1_split
				{
					OFFSET 0.000000 12.508769 -0.658067
					CHANNELS 3 Xrotation Yrotation Zrotation
					JOINT Spine2
					{
						OFFSET 0.000000 12.508769 -0.658067
						CHANNELS 3 Xrotation Yrotation Zrotation
						JOINT Neck_virtual
						{
							OFFSET 0.000000 0.000000 0.000000
							CHANNELS 3 Xrotation Yrotation Zrotation
							JOINT Neck
							{
								OFFSET 0.000000 14.033295 7.520400
								CHANNELS 3 Xrotation Yrotation Zrotation
								JOINT Head
								{
									OFFSET 0.000000 8.198502 5.703100
									CHANNELS 3 Xrotation Yrotation Zrotation
									JOINT HeadTop_End
									{
										OFFSET 0.000000 17.760803 13.332701
										CHANNELS 3 Xrotation Yrotation Zrotation
										End Site
										{
											OFFSET 0 0 0
										}
									}
								}
							}
						}
						JOINT LeftShoulder_virtual
						{
							OFFSET 0.000000 0.000000 0.000000
							CHANNELS 3 Xrotation Yrotation Zrotation
							JOINT LeftShoulder
							{
								OFFSET 6.292450 5.785301 -0.669000
								CHANNELS 3 Xrotation Yrotation Zrotation
								JOINT LeftShoulder_split
								{
									OFFSET 6.292450 5.785301 -0.669000
									CHANNELS 3 Xrotation Yrotation Zrotation
									JOINT LeftArm
									{
										OFFSET 13.907140 -6.093903 1.965100
										CHANNELS 3 Xrotation Yrotation Zrotation
										JOINT LeftForeArm
										{
											OFFSET 34.140198 0.000000 0.000000
											CHANNELS 3 Xrotation Yrotation Zrotation
											JOINT LeftHand
											{
												OFFSET 40.960209 0.000000 0.000000
												CHANNELS 3 Xrotation Yrotation Zrotation
												End Site
												{
													OFFSET 0 0 0
												}
											}
										}
									}
								}
							}
						}
						JOINT RightShoulder_virtual
						{
							OFFSET 0.000000 0.000000 0.000000
							CHANNELS 3 Xrotation Yrotation Zrotation
							JOINT RightShoulder
							{
								OFFSET -6.292450 5.785301 -0.669000
								CHANNELS 3 Xrotation Yrotation Zrotation
								JOINT RightShoulder_split
								{
									OFFSET -6.292450 5.785301 -0.669000
									CHANNELS 3 Xrotation Yrotation Zrotation
									JOINT RightArm
									{
										OFFSET -13.907140 -6.093903 1.965100
										CHANNELS 3 Xrotation Yrotation Zrotation
										JOINT RightForeArm
										{
											OFFSET -34.140198 0.000000 0.000000
											CHANNELS 3 Xrotation Yrotation Zrotation
											JOINT RightHand
											{
												OFFSET -40.960209 0.000000 0.000000
												CHANNELS 3 Xrotation Yrotation Zrotation
												End Site
												{
													OFFSET 0 0 0
												}
											}
										}
									}
								}
							}
						}
					}
				}
			}
		}
	}
}
MOTION
Frames: 11
Frame Time: 0.03333333
-0.052077 118.131683 1.881359 0.000000 0.000000 0.000000 -0.653574 -1.926301 0.961724 -7.417115 12.379522 8.638002 8.244978 -8.685772 -0.247013 -1.618515 -2.951850 -5.195907 -0.426118 0.155641 -0.761380 0.000000 0.000000 0.000000 0.050653 -0.158727 0.484072 -8.768243 -5.008067 -10.209767 12.535091 6.306861 0.750080 1.867039 -2.804777 3.860788 -0.500896 -0.385063 -0.303116 0.000000 0.000000 0.000000 -1.831155 -2.098206 0.645087 2.525330 0.871022 0.888424 0.899565 0.676706 0.252441 1.579619 2.683614 -0.217922 0.000000 0.000000 0.000000 1.140301 0.569844 -0.147419 -0.257495 -0.409535 -2.589416 -4.457898 -11.438819 5.308386 0.000000 0.000000 0.000000 0.732614 0.422519 0.276918 0.742658 -1.310240 -10.829308 -0.050564 0.186953 -2.895077 8.734314 -18.420831 -59.139705 2.199202 -26.258570 1.189337 0.000000 0.000000 0.000000 0.428413 0.448905 0.037365 0.623608 3.746249 14.375615 -0.645365 1.327354 0.061572 7.077383 4.589387 62.423373 0.085154 31.076722 -0.269996 0.000000 0.000000 0.000000 
-0.067199 118.476562 1.892654 0.000000 0.000000 0.000000 -0.279352 -1.632540 0.966021 -7.714521 11.510677 8.306575 8.504823 -8.362954 0.088524 -1.632743 -2.531250 -5.016950 -0.615198 0.188758 -0.882566 0.000000 0.000000 0.000000 0.282024 -0.501635 0.489732 -8.776423 -5.495958 -10.277934 11.500504 6.200024 0.622115 2.408930 -2.428235 4.275267 -1.062306 -0.475456 -0.221930 0.000000 0.000000 0.000000 -1.510944 -2.071233 0.486858 2.112508 0.849386 0.940560 0.915251 0.696951 0.359277 1.440645 2.972405 -0.019417 0.000000 0.000000 0.000000 1.052982 0.616461 -0.072880 -0.079028 -0.391042 -2.598913 -4.609494 -11.335565 5.061257 0.000000 0.000000 0.000000 0.750035 0.483255 0.342339 0.725037 -1.034571 -10.851338 0.974671 -0.281461 -2.458860 8.456272 -18.575102 -58.737742 2.629082 -24.383791 1.148719 0.000000 0.000000 0.000000 0.431350 0.468475 0.017736 0.613438 3.890817 14.607358 -0.119430 1.671886 0.442849 7.093097 3.531846 62.517309 0.273277 29.962223 -0.147947 0.000000 0.000000 0.000000 
-0.158556 118.865692 1.650555 0.000000 0.000000 0.000000 0.358955 -1.788864 0.956594 -8.377592 10.631709 8.079415 9.036946 -7.918233 0.417648 -1.633194 -1.856299 -5.132707 -0.688381 0.230842 -0.926312 0.000000 0.000000 0.000000 0.748299 -1.000897 0.484999 -9.216128 -5.932310 -10.303680 10.446064 5.985168 0.495843 2.421561 -2.166761 4.406907 -1.263236 -0.480054 -0.122453 0.000000 0.000000 0.000000 -0.813284 -2.219372 0.304481 1.671898 0.810687 0.962314 0.967236 0.690357 0.504031 1.368171 2.370188 0.121789 0.000000 0.000000 0.000000 0.994217 0.646232 0.034003 0.227548 -0.306691 -2.615161 -4.998168 -11.000426 4.719673 0.000000 0.000000 0.000000 0.844803 0.516862 0.407080 0.718008 -0.698803 -10.987271 1.451290 -0.651173 -1.829377 7.678089 -19.330361 -58.019260 2.772394 -23.121049 1.126135 0.000000 0.000000 0.000000 0.497880 0.500104 0.073016 0.605408 4.141104 14.864020 -0.354226 2.137880 0.332843 7.463600 3.730193 62.384994 0.366069 29.369069 0.012114 0.000000 0.000000 0.000000 
-0.282654 118.963936 1.139786 0.000000 0.000000 0.000000 1.222218 -2.169243 0.917294 -9.717531 9.863302 8.080162 10.160164 -7.381873 0.676439 -1.821137 -1.044885 -5.484771 -0.583382 0.275862 -0.880336 0.000000 0.000000 0.000000 1.501626 -1.532358 0.446130 -10.439752 -6.312025 -10.311542 9.974767 5.703785 0.391107 1.956004 -2.005656 4.366629 -1.219401 -0.419430 -0.048874 0.000000 0.000000 0.000000 0.143000 -2.480148 0.154002 1.312108 0.782410 0.995605 1.064266 0.702788 0.634488 1.300090 1.515514 0.119847 0.000000 0.000000 0.000000 0.970001 0.686489 0.135461 0.536889 -0.207331 -2.558936 -5.725585 -10.421702 4.258056 0.000000 0.000000 0.000000 0.960065 0.561187 0.422815 0.713027 -0.431922 -11.098908 1.423764 -0.717228 -1.272987 6.094318 -19.994030 -57.153817 2.681254 -23.841424 1.156515 0.000000 0.000000 0.000000 0.611086 0.570852 0.152424 0.605999 4.433264 15.004915 -0.957415 2.628122 -0.158391 7.512886 4.872974 61.714912 0.360064 30.441303 0.190620 0.000000 0.000000 0.000000 
-0.422590 118.425102 0.355045 0.000000 0.000000 0.000000 2.342254 -2.582673 0.838301 -12.146312 9.232841 8.340761 12.307586 -6.805058 0.869252 -2.373484 -0.238784 -6.029200 -0.357989 0.324618 -0.757195 0.000000 0.000000 0.000000 2.652526 -1.924155 0.364073 -12.780224 -6.658354 -10.400690 10.920743 5.523825 0.315409 1.027890 -1.815726 4.433458 -1.382153 -0.310443 -0.039655 0.000000 0.000000 0.000000 1.394693 -2.692178 0.040587 1.087966 0.779849 1.083881 1.178257 0.763601 0.694141 1.093653 0.849350 0.092876 0.000000 0.000000 0.000000 0.991736 0.772512 0.180756 0.673325 -0.120878 -2.398184 -6.912493 -9.631168 3.703660 0.000000 0.000000 0.000000 1.037973 0.646410 0.368119 0.709141 -0.368862 -11.000240 1.322590 -0.540653 -0.719491 3.323578 -19.963332 -56.408073 2.500313 -27.141703 1.212954 0.000000 0.000000 0.000000 0.768958 0.696677 0.191244 0.608423 4.693405 14.976424 -1.237885 2.872825 -0.821992 6.484906 6.635367 60.224592 0.269036 33.984112 0.418206 0.000000 0.000000 0.000000 
-0.579067 116.870522 -0.763191 0.000000 0.000000 0.000000 3.758205 -2.851091 0.723954 -15.958209 8.596024 8.820400 15.899786 -6.291353 0.986306 -3.388034 0.430344 -6.686157 -0.233383 0.369833 -0.555503 0.000000 0.000000 0.000000 4.223507 -2.061646 0.253265 -16.511762 -6.897732 -10.639628 13.867944 5.515336 0.212377 -0.459455 -1.498592 4.591620 -1.798212 -0.181975 -0.096861 0.000000 0.000000 0.000000 2.947185 -2.749968 0.000975 1.041712 0.809439 1.224794 1.293429 0.895151 0.646274 0.843324 0.201488 0.103264 0.000000 0.000000 0.000000 1.066108 0.928384 0.151704 0.517391 -0.034454 -2.142393 -8.612494 -8.638844 3.067803 0.000000 0.000000 0.000000 1.057005 0.790232 0.246102 0.692258 -0.548163 -10.544796 1.282938 -0.266664 -0.275577 -1.277841 -19.205165 -56.051063 2.347470 -33.174878 1.233246 0.000000 0.000000 0.000000 0.940161 0.875485 0.149087 0.618660 4.873153 14.675712 -1.021104 3.230094 -1.437217 3.603434 8.527802 57.774118 0.132713 39.908628 0.681548 0.000000 0.000000 0.000000 
-0.785780 114.280205 -2.114361 0.000000 0.000000 0.000000 5.567805 -2.935210 0.650227 -21.210912 7.775761 9.417593 21.024743 -5.812601 1.059568 -4.828929 0.973581 -7.335317 -0.242585 0.405741 -0.320357 0.000000 0.000000 0.000000 6.175825 -2.125178 0.170088 -21.828784 -7.027439 -11.086018 19.103607 5.628247 0.085662 -2.568091 -1.078125 4.699546 -2.095428 -0.063150 -0.176849 0.000000 0.000000 0.000000 4.864769 -2.691004 0.005455 1.147508 0.869274 1.387597 1.400851 1.078251 0.513626 0.563089 -0.138033 0.160325 0.000000 0.000000 0.000000 1.182882 1.124583 0.051212 0.031993 0.022380 -1.831595 -10.758782 -7.479736 2.396594 0.000000 0.000000 0.000000 1.045802 0.990100 0.087632 0.651915 -0.941178 -9.750443 1.196784 -0.081567 -0.183943 -7.692981 -18.041120 -56.029971 2.273883 -41.423298 1.214655 0.000000 0.000000 0.000000 1.087052 1.076915 0.044934 0.618616 5.011999 14.155210 -0.460437 3.579394 -1.650660 -1.675459 10.482327 54.468221 -0.011841 47.661740 0.976289 0.000000 0.000000 0.000000 
-0.978456 110.762810 -3.661636 0.000000 0.000000 0.000000 7.683427 -2.871268 0.622611 -27.692406 6.681295 9.970488 27.402345 -5.291904 1.117908 -6.527212 1.483796 -7.797638 -0.287539 0.413294 -0.100594 0.000000 0.000000 0.000000 8.360727 -2.131767 0.145445 -28.650666 -7.033545 -11.781513 26.349676 5.822724 -0.077217 -5.134253 -0.568112 4.635641 -2.055938 0.034849 -0.232114 0.000000 0.000000 0.000000 7.170103 -2.452438 0.010849 1.310108 0.942180 1.518734 1.516751 1.263485 0.344342 0.535157 -0.195831 0.131359 0.000000 0.000000 0.000000 1.330553 1.303524 -0.080797 -0.730810 0.079158 -1.511857 -13.208465 -6.356277 1.755095 0.000000 0.000000 0.000000 1.048900 1.210953 -0.063308 0.598604 -1.530413 -8.729383 0.925764 -0.150350 -0.387166 -15.672552 -16.813446 -56.252765 2.243992 -50.235532 1.139562 0.000000 0.000000 0.000000 1.213640 1.263265 -0.099276 0.601240 5.200851 13.542430 0.199783 3.781051 -1.463787 -9.389190 12.702129 50.700767 -0.135018 55.924243 1.182159 0.000000 0.000000 0.000000 
-1.087014 106.683655 -5.252907 0.000000 0.000000 0.000000 9.982922 -2.646299 0.626168 -34.854384 5.355226 10.430369 34.386762 -4.719457 1.141092 -8.299285 1.947076 -7.964732 -0.287541 0.378184 0.093438 0.000000 0.000000 0.000000 10.576667 -2.248696 0.207232 -36.495582 -6.764321 -12.670219 34.715396 6.085961 -0.277996 -7.716776 -0.002715 4.535427 -1.828868 0.094810 -0.253435 0.000000 0.000000 0.000000 9.752146 -2.131759 0.003796 1.484908 1.024708 1.583163 1.683532 1.424480 0.181430 0.831825 -0.316618 0.149893 0.000000 0.000000 0.000000 1.527822 1.446340 -0.190212 -1.640663 0.155526 -1.234716 -15.692349 -5.333342 1.176264 0.000000 0.000000 0.000000 1.124698 1.412281 -0.171012 0.552566 -2.340286 -7.612816 0.763642 -0.256367 -0.586553 -24.704929 -15.713115 -56.535395 2.132447 -57.957741 0.989868 0.000000 0.000000 0.000000 1.346275 1.409061 -0.260258 0.587218 5.506398 12.978120 0.630936 3.984146 -1.111152 -19.059272 15.441461 47.226585 -0.186962 63.446857 1.233352 0.000000 0.000000 0.000000 
-1.130243 102.479355 -6.703594 0.000000 0.000000 0.000000 12.275367 -2.298810 0.646878 -42.032636 3.952950 10.784764 41.182865 -4.112476 1.103626 -9.888382 2.334160 -7.857816 -0.098522 0.308804 0.224590 0.000000 0.000000 0.000000 12.739163 -2.494252 0.362097 -44.501729 -6.203761 -13.654919 43.017221 6.420247 -0.524560 -9.870761 0.593935 4.607226 -1.708603 0.135516 -0.228130 0.000000 0.000000 0.000000 12.400679 -1.884398 -0.021217 1.587824 1.121671 1.590754 1.908149 1.550343 0.035821 1.112874 -0.657772 0.190226 0.000000 0.000000 0.000000 1.770884 1.547475 -0.263140 -2.586168 0.211526 -1.054007 -17.798112 -4.348555 0.711317 0.000000 0.000000 0.000000 1.293382 1.573923 -0.233731 0.535527 -3.432711 -6.566394 0.485542 -0.250235 -0.788748 -33.762633 -14.650133 -56.656033 1.925189 -63.538436 0.810711 0.000000 0.000000 0.000000 1.522438 1.509473 -0.398088 0.596671 6.060419 12.610059 0.833309 4.199591 -0.916200 -29.556404 18.438651 44.840974 -0.183486 68.997738 1.138737 0.000000 0.000000 0.000000 
-1.114191 98.558418 -7.907421 0.000000 0.000000 0.000000 14.309881 -1.825614 0.618332 -48.467876 2.614342 11.059375 47.245129 -3.629999 1.048791 -11.042916 2.563844 -7.659957 0.218906 0.209731 0.331938 0.000000 0.000000 0.000000 14.677530 -2.797790 0.555114 -51.697975 -5.423277 -14.487883 50.033256 6.773326 -0.833834 -11.426001 1.124844 4.889180 -1.705719 0.172658 -0.172765 0.000000 0.000000 0.000000 14.829107 -1.749806 -0.017680 1.609668 1.233940 1.540595 2.177358 1.633253 -0.093074 1.316100 -0.938429 0.246017 0.000000 0.000000 0.000000 2.052736 1.617395 -0.297387 -3.426123 0.250298 -0.981198 -19.266200 -3.449701 0.401630 0.000000 0.000000 0.000000 1.522338 1.681868 -0.263795 0.559925 -4.747002 -5.763840 0.186754 -0.257380 -0.787284 -41.847804 -13.529685 -56.537249 1.721038 -66.847184 0.725966 0.000000 0.000000 0.000000 1.738069 1.573634 -0.500297 0.645769 6.933289 12.434463 0.747093 4.484327 -0.809121 -39.563311 21.164552 43.959975 -0.033207 72.055067 0.886492 0.000000 0.000000 0.000000 
